Seth and Jonah are twins with a dangerous ability: telepathy. Things start to spiral out of their control as their classmates end up dying in twisted and bizarre ways. The police suspect them. But, jealousy begins to divide them and soon they can no longer trust each other. Leading up to a horrific battle against themselves.

IMDB rating: 5.7/10 (from 1,606 users)

CAST:
Orlando Jones............Detective Lampkin
Edmund Entin.............Jonah
Gary Entin...............Seth 
Samantha Droke...........Eve
Louis Herthum............Owen Trimble 
Morgana Shaw.............Rita Trimble 

Format                           : Matroska
File size                        : 996 MiB
Duration                         : 1h 29mn
Overall bit rate                 : 1 563 Kbps
Encoded date                     : UTC 2011-09-28 07:52:28
Writing application              : mkvmerge v5.0.0 ('Die Wahre Liebe') built on Sep 25 2011 20:33:49
Writing library                  : libebml v1.2.2 + libmatroska v1.3.0

Video
ID                               : 1
Format                           : AVC
Format/Info                      : Advanced Video Codec
Format profile                   : Main@L3.0
Format settings, CABAC           : Yes
Format settings, ReFrames        : 4 frames
Muxing mode                      : Container profile=Unknown@3.0
Codec ID                         : V_MPEG4/ISO/AVC
Duration                         : 1h 29mn
Bit rate                         : 1 212 Kbps
Nominal bit rate                 : 1 245 Kbps
Width                            : 720 pixels
Height                           : 400 pixels
Display aspect ratio             : 16:9
Frame rate mode                  : Variable
Frame rate                       : 23.976 fps
Resolution                       : 8 bits
Colorimetry                      : 4:2:0
Scan type                        : Progressive
Bits/(Pixel*Frame)               : 0.176
Stream size                      : 772 MiB (77%)
Writing library                  : x264 core 112


Audio
ID                               : 2
Format                           : AC-3
Format/Info                      : Audio Coding 3
Codec ID                         : A_AC3
Duration                         : 1h 29mn
Bit rate mode                    : Constant
Bit rate                         : 320 Kbps
Channel(s)                       : 6 channels
Channel positions                : Front: L C R, Side: L R, LFE
Sampling rate                    : 48.0 KHz
Stream size                      : 204 MiB (20%)

Text
ID                               : 3
Format                           : UTF-8
Codec ID                         : S_TEXT/UTF8
Codec ID/Info                    : UTF-8 Plain Text
Language                         : Romanian


Recommended media player :VLC media player....http://www.videolan.org/vlc/